<?xml version="1.0" encoding="UTF-8"?>
<svg id="Layer_1" xmlns="http://www.w3.org/2000/svg" xmlns:xlink="http://www.w3.org/1999/xlink" version="1.1" viewBox="0 0 287.15 287.15">
  <!-- Generator: Adobe Illustrator 29.1.0, SVG Export Plug-In . SVG Version: 2.1.0 Build 142)  -->
  <defs>
    <style>
      .st0 {
        fill: url(#linear-gradient);
      }

      .st1 {
        fill: #fff;
      }
    </style>
    <linearGradient id="linear-gradient" x1="144.03" y1="-56.43" x2="143.09" y2="356.14" gradientUnits="userSpaceOnUse">
      <stop offset=".14" stop-color="#334361"/>
      <stop offset=".15" stop-color="#32425f"/>
      <stop offset=".57" stop-color="#16223a"/>
      <stop offset=".78" stop-color="#0c172c"/>
    </linearGradient>
  </defs>
  <rect class="st0" x="10.73" y="10.73" width="265.68" height="265.68" rx="45.75" ry="45.75"/>
  <g>
    <circle class="st1" cx="187.52" cy="150.91" r="28.36"/>
    <path class="st1" d="M187.52,104.78c-25.48,0-46.14,20.66-46.14,46.14s20.66,46.14,46.14,46.14,46.14-20.66,46.14-46.14-20.66-46.14-46.14-46.14ZM187.52,188.41c-20.71,0-37.5-16.79-37.5-37.5s16.79-37.5,37.5-37.5,37.5,16.79,37.5,37.5-16.79,37.5-37.5,37.5Z"/>
    <path class="st1" d="M203.25,76.38l-12.26-12.22c-3.49-3.48-6.98-6.96-10.48-10.45-1.18-1.17-2.77-1.83-4.43-1.83h-98.93c-6.18,0-11.18,5.01-11.18,11.18v153.84c0,10.14,8.22,18.37,18.37,18.37h102.38c10.14,0,18.37-8.22,18.37-18.37v-14.83c-5.51,1.89-11.42,2.94-17.58,2.94-27.13,0-49.6-19.98-53.49-46.03h-33.21c-2.23,0-4.04-1.81-4.04-4.04s1.81-4.04,4.04-4.04h32.61c0-5.13.73-10.09,2.07-14.8h-34.68c-2.23,0-4.04-1.81-4.04-4.04s1.81-4.04,4.04-4.04h36.52c.38,0,.74.07,1.09.17,8.59-18.52,27.33-31.37,49.09-31.37,6.16,0,12.06,1.04,17.58,2.94v-18.94c0-1.67-.66-3.27-1.84-4.44ZM100.82,166.86h23.45c2.23,0,4.04,1.81,4.04,4.04s-1.81,4.04-4.04,4.04h-23.45c-2.23,0-4.04-1.81-4.04-4.04s1.81-4.04,4.04-4.04ZM128.31,186.85c0,2.23-1.81,4.04-4.04,4.04h-23.45c-2.23,0-4.04-1.81-4.04-4.04s1.81-4.04,4.04-4.04h23.45c2.23,0,4.04,1.81,4.04,4.04ZM124.27,112.85h-23.45c-2.23,0-4.04-1.81-4.04-4.04s1.81-4.04,4.04-4.04h23.45c2.23,0,4.04,1.81,4.04,4.04s-1.81,4.04-4.04,4.04ZM141.06,96.15h-40.24c-2.23,0-4.04-1.81-4.04-4.04s1.81-4.04,4.04-4.04h40.24c2.23,0,4.04,1.81,4.04,4.04s-1.81,4.04-4.04,4.04ZM179.5,80.13l-8.37-.17c-1.33-.28-4.55-1.16-7.11-4.05-1.14-1.29-1.82-2.6-2.22-3.61h-78.82v144.6c0,.75.61,1.36,1.36,1.36h98.42v8.5h-98.42c-5.45,0-9.86-4.42-9.86-9.86V60.38h100.68l19.81,19.75h-15.47Z"/>
    <g>
      <path class="st1" d="M224.51,190.36c-3.95,3.7-8.44,6.82-13.36,9.21l21.59,23.3c3.01,3.25,8.1,3.45,11.35.43h0c3.25-3.01,3.45-8.1.43-11.35l-20.01-21.59Z"/>
      <path class="st1" d="M230.79,197.14c-4.16-4.51-8.32-9.02-12.48-13.53-1.84,1.57-3.12.78-4.96,2.35,4.6,5.04,9.2,10.09,13.8,15.13,1.4-2.1,2.23-1.85,3.63-3.95Z"/>
    </g>
  </g>
</svg>